<svg width="127" height="45" viewBox="0 0 127 45" fill="none" xmlns="http://www.w3.org/2000/svg">
<rect x="13.5" y="0.5" width="113" height="44" rx="2.5" stroke="#50596D"/>
<circle cx="13.5" cy="22.5" r="13" fill="#18E39C" stroke="white"/>
<path d="M19.4893 21.54V22.8672C19.4893 23.9219 19.2344 24.8594 18.7246 25.6797C18.2148 26.4941 17.5088 27.124 16.6064 27.5693C15.71 28.0146 14.6904 28.2373 13.5479 28.2373C12.3467 28.2373 11.292 27.9912 10.3838 27.499C9.48145 27.0068 8.78125 26.3154 8.2832 25.4248C7.78516 24.5283 7.53613 23.4912 7.53613 22.3135C7.53613 21.124 7.79395 20.0693 8.30957 19.1494C8.83105 18.2236 9.55469 17.5029 10.4805 16.9873C11.4121 16.4717 12.4785 16.2139 13.6797 16.2139C14.6875 16.2139 15.5928 16.3926 16.3955 16.75C17.1982 17.1074 17.8516 17.6084 18.3555 18.2529C18.8594 18.8975 19.1787 19.6328 19.3135 20.459H16.2197C16.0498 19.9668 15.7334 19.5859 15.2705 19.3164C14.8076 19.0469 14.2598 18.9121 13.627 18.9121C12.666 18.9121 11.916 19.2197 11.377 19.835C10.8379 20.4443 10.5684 21.2588 10.5684 22.2783C10.5684 23.3096 10.8408 24.1094 11.3857 24.6777C11.9307 25.2461 12.666 25.5303 13.5918 25.5303C14.2539 25.5303 14.8311 25.3955 15.3232 25.126C15.8213 24.8564 16.1494 24.4873 16.3076 24.0186H13.5742V21.54H19.4893Z" fill="white"/>
<path d="M62.2075 22.0601C62.9644 22.1724 63.5674 22.4897 64.0166 23.0122C64.4707 23.5298 64.6978 24.167 64.6978 24.9238C64.6978 25.5537 64.5415 26.1128 64.229 26.6011C63.9214 27.0845 63.4917 27.4629 62.9399 27.7363C62.3882 28.0098 61.7632 28.1465 61.0649 28.1465C60.3765 28.1465 59.7588 28.0122 59.2119 27.7437C58.665 27.4751 58.2427 27.0918 57.9448 26.5938C57.647 26.0908 57.5029 25.5098 57.5127 24.8506H59.6074C59.6074 25.2705 59.7441 25.6123 60.0176 25.876C60.2959 26.1396 60.6548 26.2715 61.0942 26.2715C61.5239 26.2715 61.873 26.147 62.1416 25.8979C62.415 25.6489 62.5518 25.3096 62.5518 24.8799C62.5518 24.4697 62.4175 24.1475 62.1489 23.9131C61.8853 23.6787 61.5337 23.5518 61.0942 23.5322C60.9722 23.5225 60.6328 23.5176 60.0762 23.5176H59.5049V22.1187L61.4531 20.2144H58.0474V18.3833H64.1704V20.1118L62.2075 22.0601ZM69.4658 28.1685C68.6748 28.1685 67.9888 27.9683 67.4077 27.5679C66.8315 27.1675 66.3896 26.5913 66.082 25.8394C65.7793 25.0874 65.6279 24.2085 65.6279 23.2026C65.6279 22.1821 65.7793 21.2935 66.082 20.5366C66.3896 19.7798 66.8291 19.2012 67.4004 18.8008C67.9766 18.3955 68.665 18.1929 69.4658 18.1929C70.2568 18.1929 70.9429 18.3955 71.5239 18.8008C72.1099 19.2012 72.5591 19.7798 72.8716 20.5366C73.189 21.2935 73.3477 22.1821 73.3477 23.2026C73.3477 24.2134 73.189 25.0947 72.8716 25.8467C72.5591 26.5938 72.1099 27.1675 71.5239 27.5679C70.9429 27.9683 70.2568 28.1685 69.4658 28.1685ZM69.4805 26.2715C70.042 26.2715 70.4644 26.0078 70.7476 25.4805C71.0308 24.9482 71.1724 24.189 71.1724 23.2026C71.1724 22.2114 71.0308 21.4497 70.7476 20.9175C70.4644 20.3804 70.042 20.1118 69.4805 20.1118C68.9287 20.1118 68.5063 20.3779 68.2134 20.9102C67.9253 21.4375 67.7812 22.2017 67.7812 23.2026C67.7812 24.1841 67.9253 24.9409 68.2134 25.4731C68.5063 26.0054 68.9287 26.2715 69.4805 26.2715ZM78.1377 28.1685C77.3467 28.1685 76.6606 27.9683 76.0796 27.5679C75.5034 27.1675 75.0615 26.5913 74.7539 25.8394C74.4512 25.0874 74.2998 24.2085 74.2998 23.2026C74.2998 22.1821 74.4512 21.2935 74.7539 20.5366C75.0615 19.7798 75.501 19.2012 76.0723 18.8008C76.6484 18.3955 77.3369 18.1929 78.1377 18.1929C78.9287 18.1929 79.6147 18.3955 80.1958 18.8008C80.7817 19.2012 81.231 19.7798 81.5435 20.5366C81.8608 21.2935 82.0195 22.1821 82.0195 23.2026C82.0195 24.2134 81.8608 25.0947 81.5435 25.8467C81.231 26.5938 80.7817 27.1675 80.1958 27.5679C79.6147 27.9683 78.9287 28.1685 78.1377 28.1685ZM78.1523 26.2715C78.7139 26.2715 79.1362 26.0078 79.4194 25.4805C79.7026 24.9482 79.8442 24.189 79.8442 23.2026C79.8442 22.2114 79.7026 21.4497 79.4194 20.9175C79.1362 20.3804 78.7139 20.1118 78.1523 20.1118C77.6006 20.1118 77.1782 20.3779 76.8853 20.9102C76.5972 21.4375 76.4531 22.2017 76.4531 23.2026C76.4531 24.1841 76.5972 24.9409 76.8853 25.4731C77.1782 26.0054 77.6006 26.2715 78.1523 26.2715Z" fill="white"/>
</svg>
