<svg width="28" height="24" viewBox="0 0 28 24" fill="none" xmlns="http://www.w3.org/2000/svg">
<g filter="url(#filter0_d)">
<path d="M22.5 6H18.7894C19.1859 6.92469 19.0119 8.0375 18.2581 8.79125L14 13.0494V14.5C14 15.3284 14.6716 16 15.5 16H22.5C23.3284 16 24 15.3284 24 14.5V7.5C24 6.67156 23.3284 6 22.5 6ZM19 11.75C18.5859 11.75 18.25 11.4141 18.25 11C18.25 10.5856 18.5859 10.25 19 10.25C19.4141 10.25 19.75 10.5856 19.75 11C19.75 11.4141 19.4141 11.75 19 11.75ZM17.5509 5.91563L12.0844 0.449062C11.4856 -0.149687 10.5147 -0.149687 9.91594 0.449062L4.44906 5.91563C3.85031 6.51438 3.85031 7.48531 4.44906 8.08406L9.91563 13.5509C10.5144 14.1497 11.4853 14.1497 12.0841 13.5509L17.5509 8.08438C18.1497 7.48531 18.1497 6.51438 17.5509 5.91563ZM7 7.75C6.58594 7.75 6.25 7.41406 6.25 7C6.25 6.58563 6.58594 6.25 7 6.25C7.41406 6.25 7.75 6.58563 7.75 7C7.75 7.41406 7.41406 7.75 7 7.75ZM11 11.75C10.5859 11.75 10.25 11.4141 10.25 11C10.25 10.5856 10.5859 10.25 11 10.25C11.4141 10.25 11.75 10.5856 11.75 11C11.75 11.4141 11.4141 11.75 11 11.75ZM11 7.75C10.5859 7.75 10.25 7.41406 10.25 7C10.25 6.58563 10.5859 6.25 11 6.25C11.4141 6.25 11.75 6.58563 11.75 7C11.75 7.41406 11.4141 7.75 11 7.75ZM11 3.75C10.5859 3.75 10.25 3.41406 10.25 3C10.25 2.58562 10.5859 2.25 11 2.25C11.4141 2.25 11.75 2.58562 11.75 3C11.75 3.41406 11.4141 3.75 11 3.75ZM15 7.75C14.5859 7.75 14.25 7.41406 14.25 7C14.25 6.58563 14.5859 6.25 15 6.25C15.4141 6.25 15.75 6.58563 15.75 7C15.75 7.41406 15.4141 7.75 15 7.75Z" fill="#A19D39"/>
</g>
<defs>
<filter id="filter0_d" x="0" y="0" width="28" height="24" filterUnits="userSpaceOnUse" color-interpolation-filters="sRGB">
<feFlood flood-opacity="0" result="BackgroundImageFix"/>
<feColorMatrix in="SourceAlpha" type="matrix" values="0 0 0 0 0 0 0 0 0 0 0 0 0 0 0 0 0 0 127 0"/>
<feOffset dy="4"/>
<feGaussianBlur stdDeviation="2"/>
<feColorMatrix type="matrix" values="0 0 0 0 0 0 0 0 0 0 0 0 0 0 0 0 0 0 0.25 0"/>
<feBlend mode="normal" in2="BackgroundImageFix" result="effect1_dropShadow"/>
<feBlend mode="normal" in="SourceGraphic" in2="effect1_dropShadow" result="shape"/>
</filter>
</defs>
</svg>
